<svg width="50" height="50" viewBox="0 0 50 50" fill="none" xmlns="http://www.w3.org/2000/svg">
<rect width="50" height="50" rx="5" fill="#FEE6E6"/>
<path d="M33.8401 17.61C33.3294 17.099 32.7229 16.6936 32.0555 16.4171C31.388 16.1405 30.6726 15.9982 29.9501 15.9982C29.2276 15.9982 28.5122 16.1405 27.8448 16.4171C27.1773 16.6936 26.5709 17.099 26.0601 17.61L25.0001 18.67L23.9401 17.61C22.9084 16.5783 21.5092 15.9987 20.0501 15.9987C18.5911 15.9987 17.1918 16.5783 16.1601 17.61C15.1284 18.6417 14.5488 20.041 14.5488 21.5C14.5488 22.959 15.1284 24.3583 16.1601 25.39L17.2201 26.45L25.0001 34.23L32.7801 26.45L33.8401 25.39C34.3511 24.8792 34.7565 24.2728 35.033 23.6053C35.3096 22.9379 35.4519 22.2225 35.4519 21.5C35.4519 20.7775 35.3096 20.0621 35.033 19.3946C34.7565 18.7272 34.3511 18.1208 33.8401 17.61V17.61Z" stroke="#F97777" stroke-width="2" stroke-linecap="round" stroke-linejoin="round"/>
</svg>
